<svg width="18" height="16" viewBox="0 0 18 16" fill="none" xmlns="http://www.w3.org/2000/svg">
<path fill-rule="evenodd" clip-rule="evenodd" d="M5.74288 3.18928C6.12113 3.05559 6.53614 3.25385 6.66984 3.6321C6.96934 4.47948 7.77753 5.08485 8.72524 5.08485C9.67296 5.08485 10.4811 4.47948 10.7807 3.6321C10.9143 3.25385 11.3294 3.05559 11.7076 3.18928C12.0859 3.32298 12.2841 3.73799 12.1504 4.11624C11.6522 5.52594 10.3078 6.53766 8.72524 6.53766C7.1427 6.53766 5.79832 5.52594 5.30007 4.11624C5.16637 3.73799 5.36463 3.32298 5.74288 3.18928ZM9.0743 1.45281H8.37581C6.80115 1.45281 5.75309 1.4554 4.95933 1.55347C4.20549 1.64661 3.85801 1.80854 3.61417 2.01091C3.37033 2.21328 3.14713 2.52497 2.91666 3.24874C2.67399 4.01083 2.47831 5.04046 2.18811 6.58815C1.78135 8.75758 1.50863 10.2311 1.46018 11.341C1.41349 12.4108 1.59276 12.8656 1.84447 13.1689C2.09617 13.4722 2.51014 13.7322 3.57023 13.8834C4.67003 14.0404 6.16858 14.0439 8.37581 14.0439H9.07431C11.2815 14.0439 12.7801 14.0404 13.8799 13.8834C14.94 13.7322 15.3539 13.4722 15.6056 13.1689C15.8574 12.8656 16.0366 12.4108 15.9899 11.341C15.9415 10.2311 15.6688 8.75758 15.262 6.58815C14.9718 5.04046 14.7761 4.01083 14.5335 3.24874C14.303 2.52497 14.0798 2.21328 13.8359 2.01091C13.5921 1.80854 13.2446 1.64661 12.4908 1.55347C11.697 1.4554 10.649 1.45281 9.0743 1.45281ZM2.68635 0.89296C1.6104 1.78592 1.32699 3.29742 0.760183 6.32041C-0.0368537 10.5713 -0.43537 12.6967 0.726514 14.0967C1.8884 15.4967 4.05087 15.4967 8.37581 15.4967H9.07431C13.3992 15.4967 15.5617 15.4967 16.7236 14.0967C17.8855 12.6967 17.487 10.5713 16.6899 6.32041C16.1231 3.29742 15.8397 1.78592 14.7638 0.89296C13.6878 0 12.15 0 9.0743 0H8.37581C5.30014 0 3.7623 0 2.68635 0.89296Z" fill="white"/>
</svg>
