<svg width="58" height="58" viewBox="0 0 58 58" fill="none" xmlns="http://www.w3.org/2000/svg">
<g clip-path="url(#clip0_1_2368)">
<path d="M0.0193452 12.862C0.0193452 9.77848 0.0756989 6.6929 -0.000781091 3.61135C-0.0510969 1.4597 1.52479 -0.00962347 3.53944 0.0064787C9.80677 0.056798 16.0741 0.0406958 22.3394 0.0165425C24.2333 0.00849147 25.4469 1.25842 25.7066 2.5949C25.7629 2.88877 25.771 3.19471 25.771 3.49461C25.775 9.76238 25.7388 16.0301 25.7931 22.2959C25.8112 24.2584 24.2977 25.8243 22.2529 25.8042C16.0198 25.7458 9.78664 25.7438 3.55353 25.8062C1.62341 25.8243 -0.0510969 24.4234 -0.000781091 22.2134C0.0736863 19.0956 0.0193452 15.9778 0.0193452 12.862Z" fill="black"/>
<path d="M32.2217 12.8498C32.2217 9.80042 32.2962 6.74705 32.1976 3.70172C32.1272 1.50176 33.695 -0.0219023 35.8525 0.000238158C42.0192 0.0666596 48.1859 0.0666596 54.3506 0.000238158C56.5404 -0.0219023 58.0176 1.52189 57.9975 3.6031C57.9391 9.80243 57.9412 16.0038 57.9955 22.2031C58.0156 24.4836 56.315 25.8201 54.4452 25.8019C48.2121 25.7416 41.979 25.7416 35.7459 25.8019C33.7695 25.8221 32.1392 24.3306 32.1976 22.1971C32.2862 19.0853 32.2217 15.9675 32.2217 12.8498Z" fill="black"/>
<path d="M12.943 32.2288C16.0264 32.2288 19.1118 32.2933 22.1911 32.2067C24.3305 32.1463 25.8178 33.7787 25.7977 35.7512C25.7373 41.9847 25.7836 48.2183 25.7615 54.4518C25.7595 55.0376 25.6609 55.6736 25.4153 56.1949C24.8317 57.4328 23.7629 57.9843 22.4044 57.9843C19.3553 57.9843 16.3041 57.9843 13.255 57.9843C10.0046 57.9843 6.75219 57.946 3.50381 57.9983C1.42476 58.0306 -0.00219777 56.4626 0.00786539 54.5625C0.0420801 48.2284 0.0139033 41.8942 0.0259791 35.56C0.0300043 33.6096 1.35834 32.2792 3.29248 32.2288C3.56016 32.2228 3.82784 32.2268 4.09753 32.2268C7.04402 32.2288 9.99253 32.2288 12.943 32.2288Z" fill="black"/>
<path d="M48.3492 54.7377C46.1292 54.7377 44.0884 54.7377 41.9108 54.7377C41.8403 52.6263 41.9208 50.533 41.8625 48.337C39.715 48.337 37.6218 48.337 35.4824 48.337C35.4824 46.1632 35.4824 44.1002 35.4824 41.9264C37.5856 41.8277 39.6808 41.9445 41.8544 41.8559C41.8544 39.7284 41.8544 37.6633 41.8544 35.6244C42.6393 35.399 46.8316 35.3466 48.3129 35.5358C48.3129 37.611 48.3129 39.7023 48.3129 41.8801C50.4866 41.8801 52.5495 41.8801 54.701 41.8801C54.8178 42.9851 54.7433 44.0156 54.7554 45.0401C54.7695 46.0787 54.7594 47.1173 54.7594 48.2887C52.6421 48.3793 50.547 48.2827 48.3492 48.3471C48.3492 50.4645 48.3492 52.5558 48.3492 54.7377Z" fill="black"/>
</g>
<defs>
<clipPath id="clip0_1_2368">
<rect width="58" height="58" fill="white"/>
</clipPath>
</defs>
</svg>
