<svg width="74" height="56" viewBox="0 0 74 56" fill="none" xmlns="http://www.w3.org/2000/svg">
<g clip-path="url(#clip0_1_2376)">
<path d="M36.9474 55.9908C33.9634 55.9908 30.9794 55.9553 27.9973 56.0001C23.8812 56.0598 20.4051 53.4915 19.1175 49.9359C18.7716 48.9803 18.6107 47.9332 18.5274 46.9141C18.4275 45.6915 18.4553 44.454 18.5126 43.2259C18.8104 36.8799 21.8037 32.2753 27.4238 29.4382C29.518 28.3799 31.7823 27.9637 34.1262 27.9842C36.0502 28.001 37.976 28.0066 39.8999 27.9842C46.4617 27.9077 52.13 31.943 54.4498 37.8523C55.1158 39.5508 55.4654 41.3202 55.5006 43.1456C55.5228 44.3103 55.5043 45.4769 55.5061 46.6416C55.5117 51.6288 51.6749 55.3132 47.8085 55.8284C47.2072 55.9086 46.6005 55.9833 45.9955 55.9852C42.9782 55.9982 39.9628 55.9908 36.9474 55.9908Z" fill="black"/>
<path d="M49.3517 12.5055C49.2999 19.5496 43.5725 24.9512 36.9256 24.9083C30.3323 24.8654 24.6086 19.4358 24.6585 12.345C24.7048 5.53049 30.2398 -0.0670829 37.1309 0.000110416C43.9443 0.0673037 49.3739 5.68167 49.3517 12.5055Z" fill="black"/>
<path d="M12.3264 43.5563C11.4459 43.5563 10.6504 43.5563 9.85305 43.5563C8.60248 43.5563 7.35006 43.5749 6.0995 43.5507C2.70113 43.4853 0.0427464 40.7621 0.018697 37.3204C0.00389737 35.1832 -0.0109023 33.0461 0.0205469 30.9109C0.0963951 25.8639 4.24399 21.8734 8.96322 21.7782C11.2091 21.7334 13.4568 21.7297 15.7008 21.7819C18.2962 21.8416 20.4755 22.8925 22.2385 24.8131C22.2995 24.8803 22.331 24.9736 22.4142 25.1248C16.0078 29.5017 12.6298 35.5995 12.3264 43.5563Z" fill="black"/>
<path d="M61.6834 43.5562C61.3763 35.6274 58.026 29.5128 51.5586 25.1042C52.5261 23.8461 53.7267 23.0249 55.1031 22.4519C56.2408 21.9778 57.4266 21.7482 58.6643 21.7594C60.6863 21.7762 62.7064 21.752 64.7284 21.7669C69.9027 21.8042 73.9782 25.9459 73.9911 31.1721C73.9967 33.2121 74.0022 35.2503 73.9893 37.2904C73.9689 40.4056 71.8174 42.9682 68.7965 43.4741C68.3562 43.5468 67.9011 43.5487 67.4534 43.5506C65.5664 43.5599 63.6776 43.5562 61.6834 43.5562Z" fill="black"/>
<path d="M70.9124 9.3158C70.9198 14.5065 66.7796 18.6818 61.6311 18.6799C56.5567 18.6781 52.3962 14.4841 52.3906 9.36433C52.3851 4.22217 56.516 0.0151278 61.5849 0.0039289C66.7555 -0.00726998 70.9068 4.13632 70.9124 9.3158Z" fill="black"/>
<path d="M3.0957 9.35124C3.09385 4.15683 7.2285 -0.00168754 12.3899 0.0039119C17.4643 0.00951134 21.6156 4.20349 21.6193 9.32885C21.623 14.4971 17.4495 18.6911 12.3159 18.6799C7.2322 18.6687 3.0994 14.4878 3.0957 9.35124Z" fill="black"/>
</g>
<defs>
<clipPath id="clip0_1_2376">
<rect width="74" height="56" fill="white"/>
</clipPath>
</defs>
</svg>
