<svg width="24" height="24" viewBox="0 0 24 24" fill="none" xmlns="http://www.w3.org/2000/svg">
<path fill-rule="evenodd" clip-rule="evenodd" d="M11.1383 2.66351C6.45778 2.66351 2.66351 6.45778 2.66351 11.1383C2.66351 15.8187 6.45778 19.613 11.1383 19.613C15.8187 19.613 19.613 15.8187 19.613 11.1383C19.613 6.45778 15.8187 2.66351 11.1383 2.66351ZM1.21069 11.1383C1.21069 5.65541 5.65541 1.21069 11.1383 1.21069C16.6211 1.21069 21.0658 5.65541 21.0658 11.1383C21.0658 13.6182 20.1565 15.8858 18.653 17.6258L21.8216 20.7943C22.1053 21.078 22.1053 21.5379 21.8216 21.8216C21.5379 22.1053 21.078 22.1053 20.7943 21.8216L17.6258 18.653C15.8858 20.1565 13.6182 21.0658 11.1383 21.0658C5.65541 21.0658 1.21069 16.6211 1.21069 11.1383Z" fill="black"/>
</svg>
