<svg width="66" height="66" viewBox="0 0 66 66" fill="none" xmlns="http://www.w3.org/2000/svg">
<path d="M48.3318 0.0134593C52.1685 0.0134593 56.007 -0.0140385 59.8438 0.023771C62.4618 0.0495503 64.3629 1.27664 65.4854 3.65692C65.843 4.41655 65.9942 5.2329 65.996 6.06986C65.9994 13.7727 66.0011 21.4738 65.996 29.1767C65.9942 30.9554 65.3135 32.4455 64.0535 33.6949C61.8584 35.8724 59.677 38.0636 57.4905 40.2497C49.5935 48.145 41.6931 56.0335 33.8082 63.9391C32.6272 65.1232 31.2693 65.8932 29.595 65.9894C27.7591 66.0942 26.1708 65.4755 24.8609 64.1677C22.4509 61.7582 20.0409 59.3504 17.6309 56.9409C12.4465 51.7593 7.26551 46.5725 2.07592 41.396C1.12361 40.4456 0.405081 39.3869 0.13864 38.0378C-0.277351 35.9411 0.241779 34.1108 1.70978 32.5898C3.63847 30.5928 5.62217 28.649 7.58695 26.6847C15.7675 18.5075 23.9585 10.3423 32.1201 2.14454C33.5813 0.673408 35.2641 -0.0260688 37.3338 -0.00028958C40.9986 0.046113 44.6652 0.0134593 48.3318 0.0134593ZM32.9057 34.91C34.1949 34.91 35.4825 34.91 36.7717 34.91C39.5495 34.91 42.3274 34.8653 45.1036 34.9306C46.3928 34.9615 47.3296 34.1813 47.321 32.9903C47.3124 31.8405 46.4186 30.9623 45.0675 31.1084C44.9832 31.117 44.8956 31.1101 44.8096 31.1101C36.935 31.1101 29.0604 31.1101 21.1858 31.1101C20.9571 31.1101 20.7268 31.1032 20.4982 31.1135C19.3997 31.1668 18.6846 31.9024 18.6743 32.9851C18.6623 34.1039 19.3946 34.8618 20.536 34.9082C20.7646 34.9168 20.9932 34.9117 21.2236 34.9117C25.117 34.91 29.0105 34.91 32.9057 34.91ZM26.9615 21.259C26.812 24.4745 29.6225 27.3309 32.9418 27.3584C36.4227 27.3859 39.027 24.4144 39.0596 21.3673C39.0957 18.1105 36.3351 15.2249 33.0071 15.2266C29.619 15.2301 26.8309 18.1294 26.9615 21.259ZM39.0287 44.792C39.1954 41.5747 36.3935 38.7012 33.0862 38.6548C29.6912 38.6084 26.9787 41.4957 26.9323 44.6098C26.8824 47.8958 29.6122 50.7607 32.947 50.7848C36.4399 50.8106 39.1404 47.8339 39.0287 44.792ZM53.7087 10.3544C52.4522 10.4695 51.8041 11.334 51.7732 12.2775C51.7405 13.3173 52.7117 14.2831 53.7483 14.2333C54.7711 14.1834 55.5927 13.4633 55.6391 12.2792C55.6787 11.2738 54.6989 10.3423 53.7087 10.3544Z" fill="black"/>
<path d="M35.2235 21.3189C35.2097 22.479 34.18 23.4998 33.0111 23.5102C31.813 23.5205 30.7472 22.4532 30.7679 21.2639C30.7885 20.0729 31.7803 19.0968 32.9802 19.0899C34.2161 19.083 35.2372 20.0953 35.2235 21.3189Z" fill="black"/>
<path d="M32.9621 46.9263C31.733 46.9091 30.724 45.8607 30.7669 44.6474C30.8099 43.4856 31.8671 42.4819 33.0257 42.5043C34.1963 42.5266 35.2174 43.5543 35.2208 44.7127C35.226 45.9329 34.1946 46.9435 32.9621 46.9263Z" fill="black"/>
</svg>
