<svg width="16" height="20" viewBox="0 0 16 20" fill="none" xmlns="http://www.w3.org/2000/svg">
<path fill-rule="evenodd" clip-rule="evenodd" d="M7.5062 0C4.96538 0 2.90563 2.05975 2.90563 4.60058C2.90563 7.1414 4.96538 9.20115 7.5062 9.20115C10.047 9.20115 12.1068 7.1414 12.1068 4.60058C12.1068 2.05975 10.047 0 7.5062 0ZM4.35844 4.60058C4.35844 2.86211 5.76774 1.45281 7.5062 1.45281C9.24467 1.45281 10.654 2.86211 10.654 4.60058C10.654 6.33904 9.24467 7.74834 7.5062 7.74834C5.76774 7.74834 4.35844 6.33904 4.35844 4.60058Z" fill="black"/>
<path fill-rule="evenodd" clip-rule="evenodd" d="M7.5062 10.654C5.53102 10.654 3.70711 11.1099 2.35176 11.8844C1.01697 12.6471 0 13.8115 0 15.2545C0 16.6975 1.01697 17.8619 2.35176 18.6247C3.70711 19.3992 5.53102 19.8551 7.5062 19.8551C9.48139 19.8551 11.3053 19.3992 12.6606 18.6247C13.9954 17.8619 15.0124 16.6975 15.0124 15.2545C15.0124 13.8115 13.9954 12.6471 12.6606 11.8844C11.3053 11.1099 9.48139 10.654 7.5062 10.654ZM1.45281 15.2545C1.45281 14.5579 1.95356 13.7852 3.07256 13.1458C4.17102 12.5181 5.73701 12.1068 7.5062 12.1068C9.2754 12.1068 10.8414 12.5181 11.9398 13.1458C13.0589 13.7852 13.5596 14.5579 13.5596 15.2545C13.5596 15.9512 13.0589 16.7239 11.9398 17.3633C10.8414 17.991 9.2754 18.4023 7.5062 18.4023C5.73701 18.4023 4.17102 17.991 3.07256 17.3633C1.95356 16.7239 1.45281 15.9512 1.45281 15.2545Z" fill="black"/>
</svg>
